<svg width="125" height="20" viewBox="0 0 125 20" fill="none" xmlns="http://www.w3.org/2000/svg">
<mask id="path-1-outside-1_29405_48" maskUnits="userSpaceOnUse" x="-0.119873" y="0.830078" width="125" height="19" fill="black">
<rect fill="white" x="-0.119873" y="0.830078" width="125" height="19"/>
<path d="M8.52413 18.3301C7.35079 18.3301 6.29113 18.1247 5.34513 17.7141C4.40646 17.2961 3.63279 16.7021 3.02413 15.9321C2.42279 15.1547 2.04146 14.2307 1.88013 13.1601L5.00413 12.6981C5.22413 13.6074 5.67879 14.3077 6.36813 14.7991C7.05746 15.2904 7.84213 15.5361 8.72213 15.5361C9.21346 15.5361 9.69013 15.4591 10.1521 15.3051C10.6141 15.1511 10.9918 14.9237 11.2851 14.6231C11.5858 14.3224 11.7361 13.9521 11.7361 13.5121C11.7361 13.3507 11.7105 13.1967 11.6591 13.0501C11.6151 12.8961 11.5381 12.7531 11.4281 12.6211C11.3181 12.4891 11.1605 12.3644 10.9551 12.2471C10.7571 12.1297 10.5041 12.0234 10.1961 11.9281L6.08213 10.7181C5.77413 10.6301 5.41479 10.5054 5.00413 10.3441C4.60079 10.1827 4.20846 9.95174 3.82713 9.65108C3.44579 9.35041 3.12679 8.95441 2.87013 8.46308C2.62079 7.96441 2.49613 7.33741 2.49613 6.58208C2.49613 5.51874 2.76379 4.63508 3.29913 3.93108C3.83446 3.22708 4.54946 2.70274 5.44413 2.35808C6.33879 2.01341 7.32879 1.84474 8.41413 1.85208C9.50679 1.86674 10.4821 2.05374 11.3401 2.41308C12.1981 2.77241 12.9168 3.29674 13.4961 3.98608C14.0755 4.66808 14.4935 5.50408 14.7501 6.49408L11.5161 7.04408C11.3988 6.53074 11.1825 6.09808 10.8671 5.74608C10.5518 5.39408 10.1741 5.12641 9.73413 4.94308C9.30146 4.75974 8.84679 4.66074 8.37013 4.64608C7.90079 4.63141 7.45713 4.69741 7.03913 4.84408C6.62846 4.98341 6.29113 5.18874 6.02713 5.46008C5.77046 5.73141 5.64213 6.05408 5.64213 6.42808C5.64213 6.77274 5.74846 7.05508 5.96113 7.27508C6.17379 7.48774 6.44146 7.66008 6.76413 7.79208C7.08679 7.92408 7.41679 8.03408 7.75413 8.12208L10.5041 8.87008C10.9148 8.98008 11.3695 9.12674 11.8681 9.31008C12.3668 9.48608 12.8435 9.73541 13.2981 10.0581C13.7601 10.3734 14.1378 10.7914 14.4311 11.3121C14.7318 11.8327 14.8821 12.4927 14.8821 13.2921C14.8821 14.1427 14.7025 14.8871 14.3431 15.5251C13.9911 16.1557 13.5145 16.6801 12.9131 17.0981C12.3118 17.5087 11.6298 17.8167 10.8671 18.0221C10.1118 18.2274 9.33079 18.3301 8.52413 18.3301Z"/>
<path d="M20.9739 18.0001V4.95408H15.9799V2.16008H28.9599V4.95408H23.9659V18.0001H20.9739Z"/>
<path d="M30.7276 18.0001V2.16008H41.0676V4.95408H33.7196V8.34208H39.7476V11.1361H33.7196V15.2061H41.0676V18.0001H30.7276Z"/>
<path d="M43.7042 18.0001V2.16008H46.3882L51.6242 12.6761L56.8602 2.16008H59.5442V18.0001H56.7502V8.54008L52.1522 18.0001H51.0962L46.4982 8.54008V18.0001H43.7042Z"/>
<path d="M71.1239 18.3301C69.8919 18.3301 68.7699 18.1357 67.7579 17.7471C66.7459 17.3584 65.8733 16.8121 65.1399 16.1081C64.4066 15.3967 63.8419 14.5607 63.4459 13.6001C63.0499 12.6394 62.8519 11.5907 62.8519 10.4541C62.8519 8.96541 63.0719 7.67841 63.5119 6.59308C63.9519 5.50774 64.5533 4.61308 65.3159 3.90908C66.0859 3.20508 66.9586 2.68441 67.9339 2.34708C68.9093 2.00241 69.9286 1.83008 70.9919 1.83008C72.3926 1.83008 73.6246 2.03908 74.6879 2.45708C75.7513 2.87508 76.6386 3.45074 77.3499 4.18408C78.0686 4.91008 78.6076 5.74608 78.9669 6.69208C79.3263 7.63808 79.5059 8.64274 79.5059 9.70608C79.5059 11.1654 79.2383 12.3057 78.7029 13.1271C78.1749 13.9411 77.2546 14.3481 75.9419 14.3481C75.3699 14.3481 74.8089 14.2161 74.2589 13.9521C73.7089 13.6881 73.3239 13.2921 73.1039 12.7641H73.8519C73.5146 13.3654 73.0783 13.7797 72.5429 14.0071C72.0149 14.2344 71.4759 14.3481 70.9259 14.3481C70.1119 14.3481 69.3896 14.1721 68.7589 13.8201C68.1356 13.4607 67.6443 12.9621 67.2849 12.3241C66.9256 11.6787 66.7459 10.9307 66.7459 10.0801C66.7459 9.20741 66.9329 8.45208 67.3069 7.81408C67.6883 7.17608 68.1979 6.68474 68.8359 6.34008C69.4739 5.98808 70.1853 5.81208 70.9699 5.81208C71.4466 5.81208 71.9453 5.91108 72.4659 6.10908C72.9939 6.29974 73.4046 6.53808 73.6979 6.82408L73.2359 7.46208V6.12008H75.0179L74.9739 10.4541C74.9739 11.0261 75.0619 11.4294 75.2379 11.6641C75.4213 11.8987 75.6559 12.0161 75.9419 12.0161C76.3159 12.0161 76.5763 11.9134 76.7229 11.7081C76.8696 11.4954 76.9539 11.2167 76.9759 10.8721C77.0053 10.5201 77.0199 10.1314 77.0199 9.70608C77.0199 8.54741 76.8219 7.60508 76.4259 6.87908C76.0373 6.15308 75.5386 5.59208 74.9299 5.19608C74.3213 4.79274 73.6833 4.51774 73.0159 4.37108C72.3559 4.21708 71.7546 4.14008 71.2119 4.14008C70.2586 4.14008 69.4079 4.28308 68.6599 4.56908C67.9193 4.84774 67.2923 5.25841 66.7789 5.80108C66.2729 6.33641 65.8953 6.98908 65.6459 7.75908C65.3966 8.52174 65.2866 9.39074 65.3159 10.3661C65.3526 11.2901 65.5139 12.1041 65.7999 12.8081C66.0859 13.5121 66.4856 14.1024 66.9989 14.5791C67.5196 15.0557 68.1356 15.4151 68.8469 15.6571C69.5583 15.8991 70.3539 16.0201 71.2339 16.0201C71.6299 16.0201 72.0223 15.9871 72.4109 15.9211C72.8069 15.8551 73.1846 15.7634 73.5439 15.6461L74.2919 17.8461C73.8006 18.0074 73.2873 18.1284 72.7519 18.2091C72.2166 18.2897 71.6739 18.3301 71.1239 18.3301ZM71.1019 12.0161C71.5786 12.0161 71.9856 11.8804 72.3229 11.6091C72.6676 11.3377 72.8399 10.8281 72.8399 10.0801C72.8399 9.44941 72.7006 8.96908 72.4219 8.63908C72.1506 8.30908 71.7399 8.14408 71.1899 8.14408C70.5226 8.14408 70.0276 8.32008 69.7049 8.67208C69.3896 9.02408 69.2319 9.49341 69.2319 10.0801C69.2319 10.6741 69.3933 11.1471 69.7159 11.4991C70.0386 11.8437 70.5006 12.0161 71.1019 12.0161Z"/>
<path d="M83.0257 18.0001V2.16008H86.0178V15.2061H92.8378V18.0001H83.0257Z"/>
<path d="M94.7081 18.0001V2.16008H97.7001V8.67208H104.784V2.16008H107.776V18.0001H104.784V11.4661H97.7001V18.0001H94.7081Z"/>
<path d="M116.848 18.3301C115.675 18.3301 114.615 18.1247 113.669 17.7141C112.731 17.2961 111.957 16.7021 111.348 15.9321C110.747 15.1547 110.366 14.2307 110.204 13.1601L113.328 12.6981C113.548 13.6074 114.003 14.3077 114.692 14.7991C115.382 15.2904 116.166 15.5361 117.046 15.5361C117.538 15.5361 118.014 15.4591 118.476 15.3051C118.938 15.1511 119.316 14.9237 119.609 14.6231C119.91 14.3224 120.06 13.9521 120.06 13.5121C120.06 13.3507 120.035 13.1967 119.983 13.0501C119.939 12.8961 119.862 12.7531 119.752 12.6211C119.642 12.4891 119.485 12.3644 119.279 12.2471C119.081 12.1297 118.828 12.0234 118.52 11.9281L114.406 10.7181C114.098 10.6301 113.739 10.5054 113.328 10.3441C112.925 10.1827 112.533 9.95174 112.151 9.65108C111.77 9.35041 111.451 8.95441 111.194 8.46308C110.945 7.96441 110.82 7.33741 110.82 6.58208C110.82 5.51874 111.088 4.63508 111.623 3.93108C112.159 3.22708 112.874 2.70274 113.768 2.35808C114.663 2.01341 115.653 1.84474 116.738 1.85208C117.831 1.86674 118.806 2.05374 119.664 2.41308C120.522 2.77241 121.241 3.29674 121.82 3.98608C122.4 4.66808 122.818 5.50408 123.074 6.49408L119.84 7.04408C119.723 6.53074 119.507 6.09808 119.191 5.74608C118.876 5.39408 118.498 5.12641 118.058 4.94308C117.626 4.75974 117.171 4.66074 116.694 4.64608C116.225 4.63141 115.781 4.69741 115.363 4.84408C114.953 4.98341 114.615 5.18874 114.351 5.46008C114.095 5.73141 113.966 6.05408 113.966 6.42808C113.966 6.77274 114.073 7.05508 114.285 7.27508C114.498 7.48774 114.766 7.66008 115.088 7.79208C115.411 7.92408 115.741 8.03408 116.078 8.12208L118.828 8.87008C119.239 8.98008 119.694 9.12674 120.192 9.31008C120.691 9.48608 121.168 9.73541 121.622 10.0581C122.084 10.3734 122.462 10.7914 122.755 11.3121C123.056 11.8327 123.206 12.4927 123.206 13.2921C123.206 14.1427 123.027 14.8871 122.667 15.5251C122.315 16.1557 121.839 16.6801 121.237 17.0981C120.636 17.5087 119.954 17.8167 119.191 18.0221C118.436 18.2274 117.655 18.3301 116.848 18.3301Z"/>
</mask>
<path d="M8.52413 18.3301C7.35079 18.3301 6.29113 18.1247 5.34513 17.7141C4.40646 17.2961 3.63279 16.7021 3.02413 15.9321C2.42279 15.1547 2.04146 14.2307 1.88013 13.1601L5.00413 12.6981C5.22413 13.6074 5.67879 14.3077 6.36813 14.7991C7.05746 15.2904 7.84213 15.5361 8.72213 15.5361C9.21346 15.5361 9.69013 15.4591 10.1521 15.3051C10.6141 15.1511 10.9918 14.9237 11.2851 14.6231C11.5858 14.3224 11.7361 13.9521 11.7361 13.5121C11.7361 13.3507 11.7105 13.1967 11.6591 13.0501C11.6151 12.8961 11.5381 12.7531 11.4281 12.6211C11.3181 12.4891 11.1605 12.3644 10.9551 12.2471C10.7571 12.1297 10.5041 12.0234 10.1961 11.9281L6.08213 10.7181C5.77413 10.6301 5.41479 10.5054 5.00413 10.3441C4.60079 10.1827 4.20846 9.95174 3.82713 9.65108C3.44579 9.35041 3.12679 8.95441 2.87013 8.46308C2.62079 7.96441 2.49613 7.33741 2.49613 6.58208C2.49613 5.51874 2.76379 4.63508 3.29913 3.93108C3.83446 3.22708 4.54946 2.70274 5.44413 2.35808C6.33879 2.01341 7.32879 1.84474 8.41413 1.85208C9.50679 1.86674 10.4821 2.05374 11.3401 2.41308C12.1981 2.77241 12.9168 3.29674 13.4961 3.98608C14.0755 4.66808 14.4935 5.50408 14.7501 6.49408L11.5161 7.04408C11.3988 6.53074 11.1825 6.09808 10.8671 5.74608C10.5518 5.39408 10.1741 5.12641 9.73413 4.94308C9.30146 4.75974 8.84679 4.66074 8.37013 4.64608C7.90079 4.63141 7.45713 4.69741 7.03913 4.84408C6.62846 4.98341 6.29113 5.18874 6.02713 5.46008C5.77046 5.73141 5.64213 6.05408 5.64213 6.42808C5.64213 6.77274 5.74846 7.05508 5.96113 7.27508C6.17379 7.48774 6.44146 7.66008 6.76413 7.79208C7.08679 7.92408 7.41679 8.03408 7.75413 8.12208L10.5041 8.87008C10.9148 8.98008 11.3695 9.12674 11.8681 9.31008C12.3668 9.48608 12.8435 9.73541 13.2981 10.0581C13.7601 10.3734 14.1378 10.7914 14.4311 11.3121C14.7318 11.8327 14.8821 12.4927 14.8821 13.2921C14.8821 14.1427 14.7025 14.8871 14.3431 15.5251C13.9911 16.1557 13.5145 16.6801 12.9131 17.0981C12.3118 17.5087 11.6298 17.8167 10.8671 18.0221C10.1118 18.2274 9.33079 18.3301 8.52413 18.3301Z" fill="white"/>
<path d="M20.9739 18.0001V4.95408H15.9799V2.16008H28.9599V4.95408H23.9659V18.0001H20.9739Z" fill="white"/>
<path d="M30.7276 18.0001V2.16008H41.0676V4.95408H33.7196V8.34208H39.7476V11.1361H33.7196V15.2061H41.0676V18.0001H30.7276Z" fill="white"/>
<path d="M43.7042 18.0001V2.16008H46.3882L51.6242 12.6761L56.8602 2.16008H59.5442V18.0001H56.7502V8.54008L52.1522 18.0001H51.0962L46.4982 8.54008V18.0001H43.7042Z" fill="white"/>
<path d="M71.1239 18.3301C69.8919 18.3301 68.7699 18.1357 67.7579 17.7471C66.7459 17.3584 65.8733 16.8121 65.1399 16.1081C64.4066 15.3967 63.8419 14.5607 63.4459 13.6001C63.0499 12.6394 62.8519 11.5907 62.8519 10.4541C62.8519 8.96541 63.0719 7.67841 63.5119 6.59308C63.9519 5.50774 64.5533 4.61308 65.3159 3.90908C66.0859 3.20508 66.9586 2.68441 67.9339 2.34708C68.9093 2.00241 69.9286 1.83008 70.9919 1.83008C72.3926 1.83008 73.6246 2.03908 74.6879 2.45708C75.7513 2.87508 76.6386 3.45074 77.3499 4.18408C78.0686 4.91008 78.6076 5.74608 78.9669 6.69208C79.3263 7.63808 79.5059 8.64274 79.5059 9.70608C79.5059 11.1654 79.2383 12.3057 78.7029 13.1271C78.1749 13.9411 77.2546 14.3481 75.9419 14.3481C75.3699 14.3481 74.8089 14.2161 74.2589 13.9521C73.7089 13.6881 73.3239 13.2921 73.1039 12.7641H73.8519C73.5146 13.3654 73.0783 13.7797 72.5429 14.0071C72.0149 14.2344 71.4759 14.3481 70.9259 14.3481C70.1119 14.3481 69.3896 14.1721 68.7589 13.8201C68.1356 13.4607 67.6443 12.9621 67.2849 12.3241C66.9256 11.6787 66.7459 10.9307 66.7459 10.0801C66.7459 9.20741 66.9329 8.45208 67.3069 7.81408C67.6883 7.17608 68.1979 6.68474 68.8359 6.34008C69.4739 5.98808 70.1853 5.81208 70.9699 5.81208C71.4466 5.81208 71.9453 5.91108 72.4659 6.10908C72.9939 6.29974 73.4046 6.53808 73.6979 6.82408L73.2359 7.46208V6.12008H75.0179L74.9739 10.4541C74.9739 11.0261 75.0619 11.4294 75.2379 11.6641C75.4213 11.8987 75.6559 12.0161 75.9419 12.0161C76.3159 12.0161 76.5763 11.9134 76.7229 11.7081C76.8696 11.4954 76.9539 11.2167 76.9759 10.8721C77.0053 10.5201 77.0199 10.1314 77.0199 9.70608C77.0199 8.54741 76.8219 7.60508 76.4259 6.87908C76.0373 6.15308 75.5386 5.59208 74.9299 5.19608C74.3213 4.79274 73.6833 4.51774 73.0159 4.37108C72.3559 4.21708 71.7546 4.14008 71.2119 4.14008C70.2586 4.14008 69.4079 4.28308 68.6599 4.56908C67.9193 4.84774 67.2923 5.25841 66.7789 5.80108C66.2729 6.33641 65.8953 6.98908 65.6459 7.75908C65.3966 8.52174 65.2866 9.39074 65.3159 10.3661C65.3526 11.2901 65.5139 12.1041 65.7999 12.8081C66.0859 13.5121 66.4856 14.1024 66.9989 14.5791C67.5196 15.0557 68.1356 15.4151 68.8469 15.6571C69.5583 15.8991 70.3539 16.0201 71.2339 16.0201C71.6299 16.0201 72.0223 15.9871 72.4109 15.9211C72.8069 15.8551 73.1846 15.7634 73.5439 15.6461L74.2919 17.8461C73.8006 18.0074 73.2873 18.1284 72.7519 18.2091C72.2166 18.2897 71.6739 18.3301 71.1239 18.3301ZM71.1019 12.0161C71.5786 12.0161 71.9856 11.8804 72.3229 11.6091C72.6676 11.3377 72.8399 10.8281 72.8399 10.0801C72.8399 9.44941 72.7006 8.96908 72.4219 8.63908C72.1506 8.30908 71.7399 8.14408 71.1899 8.14408C70.5226 8.14408 70.0276 8.32008 69.7049 8.67208C69.3896 9.02408 69.2319 9.49341 69.2319 10.0801C69.2319 10.6741 69.3933 11.1471 69.7159 11.4991C70.0386 11.8437 70.5006 12.0161 71.1019 12.0161Z" fill="white"/>
<path d="M83.0257 18.0001V2.16008H86.0178V15.2061H92.8378V18.0001H83.0257Z" fill="white"/>
<path d="M94.7081 18.0001V2.16008H97.7001V8.67208H104.784V2.16008H107.776V18.0001H104.784V11.4661H97.7001V18.0001H94.7081Z" fill="white"/>
<path d="M116.848 18.3301C115.675 18.3301 114.615 18.1247 113.669 17.7141C112.731 17.2961 111.957 16.7021 111.348 15.9321C110.747 15.1547 110.366 14.2307 110.204 13.1601L113.328 12.6981C113.548 13.6074 114.003 14.3077 114.692 14.7991C115.382 15.2904 116.166 15.5361 117.046 15.5361C117.538 15.5361 118.014 15.4591 118.476 15.3051C118.938 15.1511 119.316 14.9237 119.609 14.6231C119.91 14.3224 120.06 13.9521 120.06 13.5121C120.06 13.3507 120.035 13.1967 119.983 13.0501C119.939 12.8961 119.862 12.7531 119.752 12.6211C119.642 12.4891 119.485 12.3644 119.279 12.2471C119.081 12.1297 118.828 12.0234 118.52 11.9281L114.406 10.7181C114.098 10.6301 113.739 10.5054 113.328 10.3441C112.925 10.1827 112.533 9.95174 112.151 9.65108C111.77 9.35041 111.451 8.95441 111.194 8.46308C110.945 7.96441 110.82 7.33741 110.82 6.58208C110.82 5.51874 111.088 4.63508 111.623 3.93108C112.159 3.22708 112.874 2.70274 113.768 2.35808C114.663 2.01341 115.653 1.84474 116.738 1.85208C117.831 1.86674 118.806 2.05374 119.664 2.41308C120.522 2.77241 121.241 3.29674 121.82 3.98608C122.4 4.66808 122.818 5.50408 123.074 6.49408L119.84 7.04408C119.723 6.53074 119.507 6.09808 119.191 5.74608C118.876 5.39408 118.498 5.12641 118.058 4.94308C117.626 4.75974 117.171 4.66074 116.694 4.64608C116.225 4.63141 115.781 4.69741 115.363 4.84408C114.953 4.98341 114.615 5.18874 114.351 5.46008C114.095 5.73141 113.966 6.05408 113.966 6.42808C113.966 6.77274 114.073 7.05508 114.285 7.27508C114.498 7.48774 114.766 7.66008 115.088 7.79208C115.411 7.92408 115.741 8.03408 116.078 8.12208L118.828 8.87008C119.239 8.98008 119.694 9.12674 120.192 9.31008C120.691 9.48608 121.168 9.73541 121.622 10.0581C122.084 10.3734 122.462 10.7914 122.755 11.3121C123.056 11.8327 123.206 12.4927 123.206 13.2921C123.206 14.1427 123.027 14.8871 122.667 15.5251C122.315 16.1557 121.839 16.6801 121.237 17.0981C120.636 17.5087 119.954 17.8167 119.191 18.0221C118.436 18.2274 117.655 18.3301 116.848 18.3301Z" fill="white"/>
<path d="M8.52413 18.3301C7.35079 18.3301 6.29113 18.1247 5.34513 17.7141C4.40646 17.2961 3.63279 16.7021 3.02413 15.9321C2.42279 15.1547 2.04146 14.2307 1.88013 13.1601L5.00413 12.6981C5.22413 13.6074 5.67879 14.3077 6.36813 14.7991C7.05746 15.2904 7.84213 15.5361 8.72213 15.5361C9.21346 15.5361 9.69013 15.4591 10.1521 15.3051C10.6141 15.1511 10.9918 14.9237 11.2851 14.6231C11.5858 14.3224 11.7361 13.9521 11.7361 13.5121C11.7361 13.3507 11.7105 13.1967 11.6591 13.0501C11.6151 12.8961 11.5381 12.7531 11.4281 12.6211C11.3181 12.4891 11.1605 12.3644 10.9551 12.2471C10.7571 12.1297 10.5041 12.0234 10.1961 11.9281L6.08213 10.7181C5.77413 10.6301 5.41479 10.5054 5.00413 10.3441C4.60079 10.1827 4.20846 9.95174 3.82713 9.65108C3.44579 9.35041 3.12679 8.95441 2.87013 8.46308C2.62079 7.96441 2.49613 7.33741 2.49613 6.58208C2.49613 5.51874 2.76379 4.63508 3.29913 3.93108C3.83446 3.22708 4.54946 2.70274 5.44413 2.35808C6.33879 2.01341 7.32879 1.84474 8.41413 1.85208C9.50679 1.86674 10.4821 2.05374 11.3401 2.41308C12.1981 2.77241 12.9168 3.29674 13.4961 3.98608C14.0755 4.66808 14.4935 5.50408 14.7501 6.49408L11.5161 7.04408C11.3988 6.53074 11.1825 6.09808 10.8671 5.74608C10.5518 5.39408 10.1741 5.12641 9.73413 4.94308C9.30146 4.75974 8.84679 4.66074 8.37013 4.64608C7.90079 4.63141 7.45713 4.69741 7.03913 4.84408C6.62846 4.98341 6.29113 5.18874 6.02713 5.46008C5.77046 5.73141 5.64213 6.05408 5.64213 6.42808C5.64213 6.77274 5.74846 7.05508 5.96113 7.27508C6.17379 7.48774 6.44146 7.66008 6.76413 7.79208C7.08679 7.92408 7.41679 8.03408 7.75413 8.12208L10.5041 8.87008C10.9148 8.98008 11.3695 9.12674 11.8681 9.31008C12.3668 9.48608 12.8435 9.73541 13.2981 10.0581C13.7601 10.3734 14.1378 10.7914 14.4311 11.3121C14.7318 11.8327 14.8821 12.4927 14.8821 13.2921C14.8821 14.1427 14.7025 14.8871 14.3431 15.5251C13.9911 16.1557 13.5145 16.6801 12.9131 17.0981C12.3118 17.5087 11.6298 17.8167 10.8671 18.0221C10.1118 18.2274 9.33079 18.3301 8.52413 18.3301Z" stroke="black" stroke-width="2" mask="url(#path-1-outside-1_29405_48)"/>
<path d="M20.9739 18.0001V4.95408H15.9799V2.16008H28.9599V4.95408H23.9659V18.0001H20.9739Z" stroke="black" stroke-width="2" mask="url(#path-1-outside-1_29405_48)"/>
<path d="M30.7276 18.0001V2.16008H41.0676V4.95408H33.7196V8.34208H39.7476V11.1361H33.7196V15.2061H41.0676V18.0001H30.7276Z" stroke="black" stroke-width="2" mask="url(#path-1-outside-1_29405_48)"/>
<path d="M43.7042 18.0001V2.16008H46.3882L51.6242 12.6761L56.8602 2.16008H59.5442V18.0001H56.7502V8.54008L52.1522 18.0001H51.0962L46.4982 8.54008V18.0001H43.7042Z" stroke="black" stroke-width="2" mask="url(#path-1-outside-1_29405_48)"/>
<path d="M71.1239 18.3301C69.8919 18.3301 68.7699 18.1357 67.7579 17.7471C66.7459 17.3584 65.8733 16.8121 65.1399 16.1081C64.4066 15.3967 63.8419 14.5607 63.4459 13.6001C63.0499 12.6394 62.8519 11.5907 62.8519 10.4541C62.8519 8.96541 63.0719 7.67841 63.5119 6.59308C63.9519 5.50774 64.5533 4.61308 65.3159 3.90908C66.0859 3.20508 66.9586 2.68441 67.9339 2.34708C68.9093 2.00241 69.9286 1.83008 70.9919 1.83008C72.3926 1.83008 73.6246 2.03908 74.6879 2.45708C75.7513 2.87508 76.6386 3.45074 77.3499 4.18408C78.0686 4.91008 78.6076 5.74608 78.9669 6.69208C79.3263 7.63808 79.5059 8.64274 79.5059 9.70608C79.5059 11.1654 79.2383 12.3057 78.7029 13.1271C78.1749 13.9411 77.2546 14.3481 75.9419 14.3481C75.3699 14.3481 74.8089 14.2161 74.2589 13.9521C73.7089 13.6881 73.3239 13.2921 73.1039 12.7641H73.8519C73.5146 13.3654 73.0783 13.7797 72.5429 14.0071C72.0149 14.2344 71.4759 14.3481 70.9259 14.3481C70.1119 14.3481 69.3896 14.1721 68.7589 13.8201C68.1356 13.4607 67.6443 12.9621 67.2849 12.3241C66.9256 11.6787 66.7459 10.9307 66.7459 10.0801C66.7459 9.20741 66.9329 8.45208 67.3069 7.81408C67.6883 7.17608 68.1979 6.68474 68.8359 6.34008C69.4739 5.98808 70.1853 5.81208 70.9699 5.81208C71.4466 5.81208 71.9453 5.91108 72.4659 6.10908C72.9939 6.29974 73.4046 6.53808 73.6979 6.82408L73.2359 7.46208V6.12008H75.0179L74.9739 10.4541C74.9739 11.0261 75.0619 11.4294 75.2379 11.6641C75.4213 11.8987 75.6559 12.0161 75.9419 12.0161C76.3159 12.0161 76.5763 11.9134 76.7229 11.7081C76.8696 11.4954 76.9539 11.2167 76.9759 10.8721C77.0053 10.5201 77.0199 10.1314 77.0199 9.70608C77.0199 8.54741 76.8219 7.60508 76.4259 6.87908C76.0373 6.15308 75.5386 5.59208 74.9299 5.19608C74.3213 4.79274 73.6833 4.51774 73.0159 4.37108C72.3559 4.21708 71.7546 4.14008 71.2119 4.14008C70.2586 4.14008 69.4079 4.28308 68.6599 4.56908C67.9193 4.84774 67.2923 5.25841 66.7789 5.80108C66.2729 6.33641 65.8953 6.98908 65.6459 7.75908C65.3966 8.52174 65.2866 9.39074 65.3159 10.3661C65.3526 11.2901 65.5139 12.1041 65.7999 12.8081C66.0859 13.5121 66.4856 14.1024 66.9989 14.5791C67.5196 15.0557 68.1356 15.4151 68.8469 15.6571C69.5583 15.8991 70.3539 16.0201 71.2339 16.0201C71.6299 16.0201 72.0223 15.9871 72.4109 15.9211C72.8069 15.8551 73.1846 15.7634 73.5439 15.6461L74.2919 17.8461C73.8006 18.0074 73.2873 18.1284 72.7519 18.2091C72.2166 18.2897 71.6739 18.3301 71.1239 18.3301ZM71.1019 12.0161C71.5786 12.0161 71.9856 11.8804 72.3229 11.6091C72.6676 11.3377 72.8399 10.8281 72.8399 10.0801C72.8399 9.44941 72.7006 8.96908 72.4219 8.63908C72.1506 8.30908 71.7399 8.14408 71.1899 8.14408C70.5226 8.14408 70.0276 8.32008 69.7049 8.67208C69.3896 9.02408 69.2319 9.49341 69.2319 10.0801C69.2319 10.6741 69.3933 11.1471 69.7159 11.4991C70.0386 11.8437 70.5006 12.0161 71.1019 12.0161Z" stroke="black" stroke-width="2" mask="url(#path-1-outside-1_29405_48)"/>
<path d="M83.0257 18.0001V2.16008H86.0178V15.2061H92.8378V18.0001H83.0257Z" stroke="black" stroke-width="2" mask="url(#path-1-outside-1_29405_48)"/>
<path d="M94.7081 18.0001V2.16008H97.7001V8.67208H104.784V2.16008H107.776V18.0001H104.784V11.4661H97.7001V18.0001H94.7081Z" stroke="black" stroke-width="2" mask="url(#path-1-outside-1_29405_48)"/>
<path d="M116.848 18.3301C115.675 18.3301 114.615 18.1247 113.669 17.7141C112.731 17.2961 111.957 16.7021 111.348 15.9321C110.747 15.1547 110.366 14.2307 110.204 13.1601L113.328 12.6981C113.548 13.6074 114.003 14.3077 114.692 14.7991C115.382 15.2904 116.166 15.5361 117.046 15.5361C117.538 15.5361 118.014 15.4591 118.476 15.3051C118.938 15.1511 119.316 14.9237 119.609 14.6231C119.91 14.3224 120.06 13.9521 120.06 13.5121C120.06 13.3507 120.035 13.1967 119.983 13.0501C119.939 12.8961 119.862 12.7531 119.752 12.6211C119.642 12.4891 119.485 12.3644 119.279 12.2471C119.081 12.1297 118.828 12.0234 118.52 11.9281L114.406 10.7181C114.098 10.6301 113.739 10.5054 113.328 10.3441C112.925 10.1827 112.533 9.95174 112.151 9.65108C111.77 9.35041 111.451 8.95441 111.194 8.46308C110.945 7.96441 110.82 7.33741 110.82 6.58208C110.82 5.51874 111.088 4.63508 111.623 3.93108C112.159 3.22708 112.874 2.70274 113.768 2.35808C114.663 2.01341 115.653 1.84474 116.738 1.85208C117.831 1.86674 118.806 2.05374 119.664 2.41308C120.522 2.77241 121.241 3.29674 121.82 3.98608C122.4 4.66808 122.818 5.50408 123.074 6.49408L119.84 7.04408C119.723 6.53074 119.507 6.09808 119.191 5.74608C118.876 5.39408 118.498 5.12641 118.058 4.94308C117.626 4.75974 117.171 4.66074 116.694 4.64608C116.225 4.63141 115.781 4.69741 115.363 4.84408C114.953 4.98341 114.615 5.18874 114.351 5.46008C114.095 5.73141 113.966 6.05408 113.966 6.42808C113.966 6.77274 114.073 7.05508 114.285 7.27508C114.498 7.48774 114.766 7.66008 115.088 7.79208C115.411 7.92408 115.741 8.03408 116.078 8.12208L118.828 8.87008C119.239 8.98008 119.694 9.12674 120.192 9.31008C120.691 9.48608 121.168 9.73541 121.622 10.0581C122.084 10.3734 122.462 10.7914 122.755 11.3121C123.056 11.8327 123.206 12.4927 123.206 13.2921C123.206 14.1427 123.027 14.8871 122.667 15.5251C122.315 16.1557 121.839 16.6801 121.237 17.0981C120.636 17.5087 119.954 17.8167 119.191 18.0221C118.436 18.2274 117.655 18.3301 116.848 18.3301Z" stroke="black" stroke-width="2" mask="url(#path-1-outside-1_29405_48)"/>
</svg>
